<?xml version="1.0" standalone="no"?>
<!DOCTYPE svg PUBLIC "-//W3C//DTD SVG 20010904//EN"
 "http://www.w3.org/TR/2001/REC-SVG-20010904/DTD/svg10.dtd">
<svg version="1.0" xmlns="http://www.w3.org/2000/svg"
 width="700.000000pt" height="700.000000pt" viewBox="0 0 700.000000 700.000000"
 preserveAspectRatio="xMidYMid meet">
<metadata>
Created by potrace 1.11, written by Peter Selinger 2001-2013
</metadata>
<g transform="translate(0.000000,700.000000) scale(0.100000,-0.100000)"
fill="#000000" stroke="none">
<path d="M3567 5824 c-1 -1 -63 -5 -137 -9 -145 -7 -199 -10 -295 -20 -59 -7
-72 -8 -150 -19 -22 -3 -60 -8 -85 -11 -25 -3 -70 -10 -100 -15 -30 -5 -71
-12 -90 -15 -208 -33 -573 -125 -648 -164 -123 -63 -196 -181 -225 -369 -8
-52 -39 -142 -48 -142 -5 0 -9 -6 -9 -13 0 -30 -81 -105 -186 -173 -388 -252
-624 -587 -715 -1014 -19 -87 -23 -138 -23 -295 -1 -210 3 -254 39 -395 71
-279 191 -492 399 -706 133 -137 308 -263 448 -323 l42 -17 1 -150 c3 -203 28
-279 127 -375 89 -86 332 -172 554 -195 86 -10 316 -10 410 -1 174 17 389 65
583 131 l134 46 66 -69 c67 -69 167 -141 251 -179 112 -52 312 -104 505 -132
44 -6 94 -13 110 -16 182 -28 539 -22 647 12 10 3 29 7 43 10 127 23 334 118
415 191 111 99 293 480 388 808 57 200 95 382 107 520 3 33 8 87 11 120 4 33
8 78 10 100 5 60 5 544 0 590 -5 37 -8 78 -22 230 -3 33 -12 103 -21 155 -8
52 -16 106 -18 120 -2 14 -12 70 -23 125 -12 55 -23 111 -25 125 -7 36 -86
349 -97 385 -6 17 -24 75 -41 130 -86 280 -214 610 -262 678 -40 57 -97 103
-162 133 -54 24 -239 66 -435 99 -19 3 -42 8 -50 10 -18 5 -66 12 -170 26 -41
6 -91 12 -110 15 -62 9 -94 12 -152 18 -32 3 -84 9 -115 12 -104 11 -117 12
-248 19 -122 7 -622 14 -628 9z m643 -268 c63 -4 129 -8 145 -11 17 -2 62 -7
100 -10 76 -7 103 -10 213 -25 40 -5 91 -12 115 -15 23 -3 53 -7 67 -10 14 -3
68 -12 120 -21 171 -28 384 -76 412 -92 15 -9 34 -30 42 -47 63 -135 187 -479
245 -680 79 -274 162 -672 176 -850 2 -22 7 -76 10 -120 4 -44 9 -98 11 -120
7 -53 7 -525 0 -595 -3 -30 -8 -75 -11 -100 -3 -25 -7 -68 -10 -97 -7 -81 -36
-243 -70 -393 -47 -203 -162 -489 -282 -696 -43 -75 -99 -114 -229 -160 -96
-35 -104 -37 -214 -55 -75 -12 -317 -15 -405 -5 -189 22 -238 29 -324 46 -154
31 -290 75 -358 117 -43 26 -92 71 -140 129 l-43 50 0 222 0 222 48 -7 c62 -9
301 -10 379 -1 101 11 160 55 170 126 8 61 -11 103 -60 136 -40 26 -46 27
-127 21 -175 -13 -273 -8 -419 22 -254 51 -509 219 -680 448 -89 118 -172 307
-207 467 -17 79 -22 268 -11 371 49 428 350 801 772 958 79 29 100 44 118 82
48 101 -33 218 -138 201 -130 -21 -384 -157 -535 -288 l-65 -56 -59 66 c-59
65 -180 170 -223 192 -32 18 -87 24 -114 13 -79 -30 -119 -127 -81 -198 6 -10
39 -43 74 -73 79 -68 207 -201 208 -216 0 -5 -14 -32 -30 -58 -96 -151 -159
-316 -205 -536 -15 -74 -22 -311 -11 -390 13 -90 19 -123 37 -192 108 -430
410 -795 808 -978 l71 -33 -2 -235 -3 -235 -115 -39 c-268 -90 -491 -128 -730
-123 -91 2 -176 6 -190 9 -33 8 -70 15 -100 20 -45 7 -164 47 -209 69 -68 34
-84 62 -86 154 -1 43 0 83 2 89 3 7 29 6 86 -3 165 -28 526 -14 599 23 76 39
93 165 29 224 -48 45 -61 46 -276 21 -130 -15 -237 -6 -442 35 -12 2 -60 18
-105 35 -301 110 -561 345 -699 630 -89 184 -131 369 -129 569 2 133 8 180 36
295 87 345 284 606 609 808 116 72 165 114 222 194 61 86 97 177 123 317 29
152 35 157 195 202 66 19 131 36 145 38 14 2 54 11 90 20 36 8 80 18 99 21 19
3 37 7 40 9 3 2 26 7 51 10 25 3 56 8 70 11 42 8 142 23 200 30 30 3 62 8 70
10 8 2 49 7 90 10 41 4 93 9 115 11 22 2 89 6 150 9 60 3 110 7 112 9 5 5 551
-1 663 -8z"/>
<path d="M4655 2674 c-126 -43 -141 -197 -25 -257 85 -44 200 27 200 123 0 97
-87 164 -175 134z"/>
</g>
</svg>
